<svg xmlns="http://www.w3.org/2000/svg" version="1.1" xmlns:xlink="http://www.w3.org/1999/xlink" xmlns:svgjs="http://svgjs.dev/svgjs" width="308" height="304" viewBox="0 0 1000 1000"><rect width="1000" height="1000" fill="#ffffff"></rect><g transform="matrix(0.7,0,0,0.7,149.98944231721316,165.32171540510222)"><svg viewBox="0 0 258 247" data-background-color="#120101" preserveAspectRatio="xMidYMid meet" height="957" width="1000" xmlns="http://www.w3.org/2000/svg" xmlns:xlink="http://www.w3.org/1999/xlink"><g id="tight-bounds" transform="matrix(1,0,0,1,0.004221487025631632,-0.09997365579206985)"><svg viewBox="0 0 257.99188725274723 247.2" height="247.2" width="257.99188725274723"><g><svg viewBox="0 0 257.99188725274723 247.2" height="247.2" width="257.99188725274723"><g><svg viewBox="0 0 257.99188725274723 247.2" height="247.2" width="257.99188725274723"><g id="textblocktransform"><svg viewBox="0 0 257.99188725274723 247.2" height="247.2" width="257.99188725274723" id="textblock"><g><svg viewBox="0 0 257.99188725274723 247.2" height="247.2" width="257.99188725274723"><path d="M257.388 53.02C256.175 27.36 252.718 20.227 252.718 20.227 242.106-6.202 228.861-0.506 216.963 3.292 195.956 3.446 175.034 9.091 154.075 12.119 110.084 12.581 65.717 4.986 21.945 23.717 17.833 29.464-4.266 24.846 0.731 56.304 2.041 69.39 6.82 83.913 6.674 95.922 7.329 98.026 8.239 93.202 8.627 96.23 9.986 104.39 12.205 100.541 14.024 105.365 11.49 118.246 13.309 128.971 15.043 140.21 11.987 143.135 8.069 141.749 6.311 151.449 6.129 158.479 5.146 157.145 4.067 156.837 3.278 156.632 1.69 157.402 1.956 159.608 2.866 167.152-1.039 171.514 1.411 178.904-0.275 186.91 2.575 193.838 2.187 202.511 2.138 204.255 2.405 205.744 2.83 206.154 4.71 208.361 1.968 212.672 2.26 217.342 21.544 249.262 42.466 227.195 62.224 241.872 67.355 231.608 63.498 245.516 65.547 243.36 67.148 240.846 68.313 251.263 70.12 245.362 70.399 243.668 69.974 239.665 70.969 240.435 71.49 240.846 71.951 240.743 72.024 238.382 72.133 234.841 71.175 237.048 70.92 235.201 73.674 225.861 72.994 248.081 75.578 247.158 75.457 244.438 74.705 240.538 76.245 241.051 77.773 237.151 77.822 233.918 79.18 242.693 79.229 244.592 79.471 245.926 79.859 246.85 84.104 237.305 88.325 250.237 92.776 245.926 95.505 241.205 98.125 248.492 100.891 246.696 101.861 245.259 102.843 242.693 103.777 247.004 115.215 247.928 127.404 244.079 138.247 247.158 167.223 241.41 198.187 249.518 228.74 241.923 235.944 238.998 243.428 234.841 250.45 231.506 250.45 231.506 256.139 222.371 256.139 181.316S257.351 145.393 257.533 112.703C257.715 80.013 258.564 78.679 257.351 53.02Z" opacity="1" fill="#000000" data-fill-palette-color="tertiary"></path><g transform="matrix(1,0,0,1,55.76831999999999,26.230666666666668)"><svg width="146.45524725274726" viewBox="1.98 -35.55 26.73 35.55" height="194.73866666666666" data-palette-color="#ffffff"><path d="M14.75 0L1.98 0 1.98-3.08 5.96-3.76 5.96-31.76 1.98-32.45 1.98-35.55 28.71-35.55 28.71-27 24.85-27 24.32-31.81 10.77-31.81 10.77-19.51 23.78-19.51 23.78-15.72 10.77-15.72 10.77-3.76 14.75-3.08 14.75 0Z" opacity="1" transform="matrix(1,0,0,1,0,0)" fill="#ffffff" class="wordmark-text-0" data-fill-palette-color="quaternary" id="text-0"></path></svg></g></svg></g></svg></g></svg></g><g></g></svg></g><defs></defs></svg><rect width="257.99188725274723" height="247.2" fill="none" stroke="none" visibility="hidden"></rect></g></svg></g></svg>